<svg width="150" height="150" viewBox="0 0 150 150" fill="none" xmlns="http://www.w3.org/2000/svg">
<rect width="150" height="150" fill="#0071F2"/>
<rect x="40" y="29" width="75" height="98" rx="6" fill="#123D6E"/>
<rect x="34" y="23" width="75" height="98" rx="6" fill="#FEFEFE"/>
<rect x="43" y="32" width="57" height="51" rx="3" fill="#C2D0DF"/>
<path d="M77.6286 43.8286C77.2756 46.8989 74.6206 49.2929 71.4571 49.2929C68.2936 49.2929 65.6386 46.8989 65.2857 43.8286L56.0286 47.0429L57.1857 54.3715L61.1528 54.8485C61.6079 54.9063 61.6092 54.9063 61.6092 55.375L61.1714 71.8572H81.7429L81.3051 55.375C81.2916 54.925 81.2916 54.925 81.7615 54.8485L85.7286 54.3715L86.8857 47.0429L77.6286 43.8286Z" fill="#457DB9"/>
<circle cx="50.5" cy="105.5" r="7.5" fill="#457DB9"/>
<circle cx="71.5" cy="105.5" r="7.5" fill="#65A5EA"/>
<circle cx="92.5" cy="105.5" r="7.5" fill="#B0C7E0"/>
<rect x="43" y="88" width="33" height="5" fill="#C2D0DF"/>
</svg>
