<svg width="150" height="150" viewBox="0 0 150 150" fill="none" xmlns="http://www.w3.org/2000/svg">
<rect width="150" height="150" fill="#0071F2"/>
<g clip-path="url(#clip0_41_3)">
<mask id="mask0_41_3" style="mask-type:luminance" maskUnits="userSpaceOnUse" x="19" y="19" width="112" height="112">
<path d="M131 19H19V131H131V19Z" fill="white"/>
</mask>
<g mask="url(#mask0_41_3)">
<path d="M127.209 86.7639H127.5L127.111 88.3194L126.334 90.9444L125.263 93.9584L123.709 97.4584L122.736 99.4028L121.375 101.736L120.013 103.875L118.847 105.528L117.486 107.278L116.611 108.347L115.347 109.806L114.861 110.388L114.181 110.972L114.084 111.166H113.888L113.694 111.556L112.916 112.334L112.138 113.013L111.361 113.791L110.291 114.666L109.028 115.737L107.181 117.097L105.236 118.459L103.292 119.625L101.639 120.597L99.7916 121.569L97.2639 122.737L94.25 123.903L91.3333 124.875L88.8056 125.556L85.5972 126.237L82.3889 126.722L79.375 127.013L77.3334 127.112H74.2222L71.1111 126.916L67.8056 126.528L64.6944 125.944L61.7778 125.263L58.9584 124.388L57.0139 123.709L54.2916 122.638L51.0834 121.084L48.75 119.819L46.2222 118.263L44.2778 116.903L42.625 115.638L41.0694 114.375L40.0972 113.5L39.3194 112.819L38.7361 112.334V112.138L41.0694 111.459L50.5 108.737L61.6806 105.528L66.8334 104.069L72.1806 102.514L76.9444 101.153L82.0972 99.6944L94.5416 96.0972L99.6944 94.6389L104.75 93.1806L120.986 88.5139L127.209 86.7639Z" fill="#C9E2FF"/>
<path d="M72.375 21.8194H78.0138L81.3194 22.1111L84.7222 22.5972L87.5416 23.1805L89.875 23.7639L93.2778 24.8333L95.3194 25.6111L98.236 26.875L100.375 27.9444L102.611 29.2084L104.556 30.375L105.528 31.0556L107.181 32.2222L108.834 33.4861L110.097 34.5556L111.166 35.4306L112.819 36.9861L114.763 38.9306L115.444 39.7084L116.709 41.1666L117.875 42.625L119.041 44.1806L120.597 46.5138L121.861 48.5556L123.222 51.0834L124.681 54.1944L125.556 56.4306L126.722 59.9306L127.209 61.7778L126.334 61.6806L120.986 60.2222L110.388 57.2084L83.0694 49.3334L61 42.9166L38.6388 36.4028V36.1111L41.5556 33.5834L42.8194 32.6111L44.6666 31.25L46.125 30.2778L48.1666 29.0138L50.4028 27.75L52.6388 26.6805L55.5556 25.4166L57.6944 24.6389L60.2222 23.8611L64.111 22.8889L67.611 22.3055L71.0138 21.9166L72.375 21.8194Z" fill="#C9E2FF"/>
<path d="M27.5555 51.1806L28.5278 51.2778L35.5278 52.3472L56.5278 55.6528L61.9722 56.5278L68 57.5L72.4722 58.1806L124.681 66.4444L128.181 67.0278L128.375 67.3194L128.763 71.4028V72.375L125.75 72.1806L23.4722 64.9862L23.0833 64.8888L23.1805 64.0138L24.25 59.7361L25.4166 56.2361L26.4861 53.5138L27.5555 51.1806Z" fill="#C9E2FF"/>
<path d="M128.472 76.5555L128.763 76.6528V78.2083L128.569 80.9305L128.472 81.4166L127.209 81.7083L121.763 82.5833L90.3612 87.5416L50.9862 93.7638L30.0834 97.0694L28.3334 97.3611H27.75L26.9722 95.8055L26 93.5694L24.9306 90.6527L24.0556 87.7361L23.1806 84.0416L23.2778 83.75L23.4722 83.6528L46.0278 82.0972L69.0694 80.5416L92.2084 78.9861L115.25 77.4305L128.472 76.5555Z" fill="#C9E2FF"/>
</g>
</g>
<defs>
<clipPath id="clip0_41_3">
<rect width="112" height="112" fill="white" transform="translate(19 19)"/>
</clipPath>
</defs>
</svg>
