<svg width="150" height="150" viewBox="0 0 150 150" fill="none" xmlns="http://www.w3.org/2000/svg">
<rect width="150" height="150" fill="#0071F2"/>
<rect x="40" y="29" width="75" height="98" rx="6" fill="#123D6E"/>
<rect x="34" y="23" width="75" height="98" rx="6" fill="#FEFEFE"/>
<rect x="43" y="32" width="57" height="51" rx="3" fill="#C2D0DF"/>
<path d="M77.6286 43.8286C77.2756 46.8989 74.6206 49.2929 71.4571 49.2929C68.2936 49.2929 65.6386 46.8989 65.2857 43.8286L56.0286 47.0429L57.1857 54.3715L61.1528 54.8485C61.6079 54.9063 61.6092 54.9063 61.6092 55.375L61.1714 71.8572H81.7429L81.3051 55.375C81.2916 54.925 81.2916 54.925 81.7615 54.8485L85.7286 54.3715L86.8857 47.0429L77.6286 43.8286Z" fill="#457DB9"/>
<rect x="43" y="98" width="55" height="5" fill="#C2D0DF"/>
<rect x="43" y="108" width="22" height="5" fill="#C2D0DF"/>
<rect x="43" y="88" width="33" height="5" fill="#C2D0DF"/>
<g filter="url(#filter0_d_44_2)">
<circle cx="94.5" cy="79.5" r="11.5" fill="#0071F2"/>
</g>
<path d="M89.1549 80.7478L94.5977 85.9961L100.041 80.7478C100.985 80.0364 101.595 78.9087 101.595 77.6376C101.595 75.4917 99.8537 73.75 97.7079 73.75C96.4367 73.75 95.3052 74.3644 94.5977 75.3091C93.8903 74.3644 92.7587 73.75 91.4876 73.75C89.3417 73.75 87.6 75.4917 87.6 77.6376C87.6 78.9087 88.2102 80.0364 89.1549 80.7478Z" fill="#FEFEFE"/>
<defs>
<filter id="filter0_d_44_2" x="79" y="66" width="31" height="31" filterUnits="userSpaceOnUse" color-interpolation-filters="sRGB">
<feFlood flood-opacity="0" result="BackgroundImageFix"/>
<feColorMatrix in="SourceAlpha" type="matrix" values="0 0 0 0 0 0 0 0 0 0 0 0 0 0 0 0 0 0 127 0" result="hardAlpha"/>
<feOffset dy="2"/>
<feGaussianBlur stdDeviation="2"/>
<feComposite in2="hardAlpha" operator="out"/>
<feColorMatrix type="matrix" values="0 0 0 0 0 0 0 0 0 0 0 0 0 0 0 0 0 0 0.4 0"/>
<feBlend mode="normal" in2="BackgroundImageFix" result="effect1_dropShadow_44_2"/>
<feBlend mode="normal" in="SourceGraphic" in2="effect1_dropShadow_44_2" result="shape"/>
</filter>
</defs>
</svg>
