<svg width="150" height="150" viewBox="0 0 150 150" fill="none" xmlns="http://www.w3.org/2000/svg">
<rect width="150" height="150" fill="#0071F2"/>
<rect x="40" y="29" width="75" height="98" rx="6" fill="#123D6E"/>
<rect x="34" y="23" width="75" height="98" rx="6" fill="#FEFEFE"/>
<rect x="43" y="32" width="57" height="51" rx="3" fill="#C2D0DF"/>
<path d="M77.6286 43.8286C77.2756 46.8989 74.6206 49.2929 71.4571 49.2929C68.2936 49.2929 65.6386 46.8989 65.2857 43.8286L56.0286 47.0429L57.1857 54.3715L61.1528 54.8485C61.6079 54.9063 61.6092 54.9063 61.6092 55.375L61.1714 71.8572H81.7429L81.3051 55.375C81.2916 54.925 81.2916 54.925 81.7615 54.8485L85.7286 54.3715L86.8857 47.0429L77.6286 43.8286Z" fill="#457DB9"/>
<rect x="43" y="98" width="57" height="17" rx="8.5" fill="#0071F2"/>
<rect x="67" y="107.5" width="15" height="2.5" fill="#FEFEFE"/>
<rect x="67" y="103" width="24" height="2.5" fill="#FEFEFE"/>
<g clip-path="url(#clip0_45_208)">
<path fill-rule="evenodd" clip-rule="evenodd" d="M58.875 105.375H56.625V103.125C56.625 102.503 56.1213 102 55.5 102C54.8787 102 54.375 102.503 54.375 103.125V105.375H52.125C51.5037 105.375 51 105.878 51 106.5C51 107.122 51.5037 107.625 52.125 107.625H54.375V109.875C54.375 110.497 54.8787 111 55.5 111C56.1213 111 56.625 110.497 56.625 109.875V107.625H58.875C59.4963 107.625 60 107.122 60 106.5C60 105.878 59.4963 105.375 58.875 105.375Z" fill="#FEFEFE"/>
</g>
<rect x="43" y="88" width="33" height="5" fill="#C2D0DF"/>
<defs>
<clipPath id="clip0_45_208">
<rect width="9" height="9" fill="white" transform="translate(51 102)"/>
</clipPath>
</defs>
</svg>
