<svg width="150" height="150" viewBox="0 0 150 150" fill="none" xmlns="http://www.w3.org/2000/svg">
<rect width="150" height="150" fill="#0071F2"/>
<rect x="33" y="31" width="90" height="95" rx="6" fill="#123D6E"/>
<rect x="27" y="25" width="90" height="95" rx="6" fill="#F4F4F4"/>
<rect x="69" y="93" width="40" height="5" fill="#C2D0DF"/>
<rect x="69" y="102" width="23" height="5" fill="#C2D0DF"/>
<rect x="69" y="84" width="32" height="5" fill="#C2D0DF"/>
<rect x="36" y="82" width="27" height="27.6923" rx="3" fill="#C2D0DF"/>
<path d="M52.2692 88.9666C52.0911 90.5165 50.7508 91.725 49.1538 91.725C47.5569 91.725 46.2166 90.5165 46.0384 88.9666L41.3654 90.5891L41.9495 94.2887L43.9521 94.5295C44.1819 94.5587 44.1825 94.5587 44.1825 94.7952L43.9615 103.116H54.3461L54.1251 94.7952C54.1183 94.5681 54.1183 94.5681 54.3555 94.5295L56.3582 94.2887L56.9423 90.5891L52.2692 88.9666Z" fill="#457DB9"/>
<mask id="path-9-inside-1_46_331" fill="white">
<path d="M27 31C27 27.6863 29.6863 25 33 25H111C114.314 25 117 27.6863 117 31V73H27V31Z"/>
</mask>
<path d="M27 31C27 27.6863 29.6863 25 33 25H111C114.314 25 117 27.6863 117 31V73H27V31Z" fill="#FEFEFE"/>
<path d="M27 25H117H27ZM117 74H27V72H117V74ZM27 73V25V73ZM117 25V73V25Z" fill="#CCCCCC" mask="url(#path-9-inside-1_46_331)"/>
<rect x="69" y="46" width="40" height="5" fill="#C2D0DF"/>
<rect x="69" y="55" width="23" height="5" fill="#C2D0DF"/>
<rect x="69" y="37" width="32" height="5" fill="#C2D0DF"/>
<rect x="36" y="35" width="27" height="27.6923" rx="3" fill="#C2D0DF"/>
<path d="M52.2692 41.9664C52.0911 43.5163 50.7508 44.7248 49.1538 44.7248C47.5569 44.7248 46.2166 43.5163 46.0384 41.9664L41.3654 43.589L41.9495 47.2885L43.9521 47.5293C44.1819 47.5585 44.1825 47.5585 44.1825 47.7951L43.9615 56.1155H54.3461L54.1251 47.7951C54.1183 47.568 54.1183 47.568 54.3555 47.5293L56.3582 47.2885L56.9423 43.589L52.2692 41.9664Z" fill="#457DB9"/>
</svg>
