<svg width="150" height="150" viewBox="0 0 150 150" fill="none" xmlns="http://www.w3.org/2000/svg">
<rect width="150" height="150" fill="#0071F2"/>
<rect x="33" y="31" width="90" height="95" rx="6" fill="#123D6E"/>
<rect x="26" y="25" width="90" height="95" rx="6" fill="#C9E2FF"/>
<g filter="url(#filter0_d_44_68)">
<path d="M59 31C59 27.6863 61.6863 25 65 25H111C114.314 25 117 27.6863 117 31V114C117 117.314 114.314 120 111 120H65C61.6863 120 59 117.314 59 114V31Z" fill="#FEFEFE"/>
</g>
<rect x="69" y="95" width="39" height="5" fill="#C2D0DF"/>
<rect x="69" y="105" width="22.4545" height="5" fill="#C2D0DF"/>
<rect x="69" y="85" width="30.7273" height="5" fill="#C2D0DF"/>
<rect x="69" y="40" width="39" height="40" rx="3" fill="#C2D0DF"/>
<path d="M92.5 50.0625C92.2427 52.3012 90.3067 54.0469 88 54.0469C85.6933 54.0469 83.7573 52.3012 83.5 50.0625L76.75 52.4062L77.5938 57.75L80.4864 58.0978C80.8183 58.14 80.8192 58.14 80.8192 58.4817L80.5 70.5H95.5L95.1808 58.4817C95.1709 58.1536 95.1709 58.1536 95.5136 58.0978L98.4062 57.75L99.25 52.4062L92.5 50.0625Z" fill="#457DB9"/>
<circle cx="109.5" cy="32.5" r="3.5" fill="#4485CA"/>
<defs>
<filter id="filter0_d_44_68" x="53" y="21" width="66" height="103" filterUnits="userSpaceOnUse" color-interpolation-filters="sRGB">
<feFlood flood-opacity="0" result="BackgroundImageFix"/>
<feColorMatrix in="SourceAlpha" type="matrix" values="0 0 0 0 0 0 0 0 0 0 0 0 0 0 0 0 0 0 127 0" result="hardAlpha"/>
<feOffset dx="-2"/>
<feGaussianBlur stdDeviation="2"/>
<feComposite in2="hardAlpha" operator="out"/>
<feColorMatrix type="matrix" values="0 0 0 0 0 0 0 0 0 0 0 0 0 0 0 0 0 0 0.25 0"/>
<feBlend mode="normal" in2="BackgroundImageFix" result="effect1_dropShadow_44_68"/>
<feBlend mode="normal" in="SourceGraphic" in2="effect1_dropShadow_44_68" result="shape"/>
</filter>
</defs>
</svg>
