<svg width="150" height="150" viewBox="0 0 150 150" fill="none" xmlns="http://www.w3.org/2000/svg">
<rect width="150" height="150" fill="#0071F2"/>
<rect x="40" y="29" width="75" height="98" rx="6" fill="#123D6E"/>
<rect x="34" y="23" width="75" height="98" rx="6" fill="#FEFEFE"/>
<rect x="43" y="32" width="57" height="51" rx="3" fill="#C2D0DF"/>
<path d="M77.6286 43.8286C77.2756 46.8989 74.6206 49.2929 71.4571 49.2929C68.2936 49.2929 65.6386 46.8989 65.2857 43.8286L56.0286 47.0429L57.1857 54.3715L61.1528 54.8485C61.6079 54.9063 61.6092 54.9063 61.6092 55.375L61.1714 71.8572H81.7429L81.3051 55.375C81.2916 54.925 81.2916 54.925 81.7615 54.8485L85.7286 54.3715L86.8857 47.0429L77.6286 43.8286Z" fill="#457DB9"/>
<rect x="43.5" y="88.5" width="56" height="21" rx="2.5" fill="#FEFEFE" stroke="#CCCCCC"/>
<rect x="64" y="100.5" width="11.875" height="2.5" fill="#C2D0DF"/>
<rect x="64" y="96" width="19" height="2.5" fill="#C2D0DF"/>
<rect x="46" y="91" width="15.6" height="16" rx="3" fill="#C2D0DF"/>
<g clip-path="url(#clip0_46_422)">
<path d="M55.4 95.0251C55.2971 95.9206 54.5227 96.6189 53.6 96.6189C52.6773 96.6189 51.9029 95.9206 51.8 95.0251L49.1 95.9626L49.4375 98.1001L50.5946 98.2393C50.7273 98.2561 50.7277 98.2561 50.7277 98.3928L50.6 103.2H56.6L56.4723 98.3928C56.4684 98.2616 56.4684 98.2616 56.6054 98.2393L57.7625 98.1001L58.1 95.9626L55.4 95.0251Z" fill="#457DB9"/>
</g>
<path d="M91 98L93.5 100L96 98" stroke="#C2D0DF" stroke-width="1.5" stroke-linecap="round" stroke-linejoin="round"/>
<defs>
<clipPath id="clip0_46_422">
<rect width="9.6" height="9.6" fill="white" transform="translate(48.8 94.2002)"/>
</clipPath>
</defs>
</svg>
