<svg width="150" height="150" viewBox="0 0 150 150" fill="none" xmlns="http://www.w3.org/2000/svg">
<rect width="150" height="150" fill="#0071F2"/>
<rect x="33" y="31" width="90" height="95" rx="6" fill="#123D6E"/>
<rect x="26" y="25" width="90" height="95" rx="6" fill="#F4F4F4"/>
<mask id="path-4-inside-1_45_266" fill="white">
<path d="M72 25H111C114.314 25 117 27.6863 117 31V114C117 117.314 114.314 120 111 120H72V25Z"/>
</mask>
<path d="M72 25H111C114.314 25 117 27.6863 117 31V114C117 117.314 114.314 120 111 120H72V25Z" fill="#FEFEFE"/>
<path d="M72 25H117H72ZM117 120H72H117ZM71 120V25H73V120H71ZM117 25V120V25Z" fill="#CCCCCC" mask="url(#path-4-inside-1_45_266)"/>
<rect x="79" y="89.7949" width="31" height="5" fill="#C2D0DF"/>
<rect x="79" y="99.7949" width="17.8485" height="5" fill="#C2D0DF"/>
<rect x="79" y="79.7949" width="24.4242" height="5" fill="#C2D0DF"/>
<rect x="79" y="41" width="31" height="31.7949" rx="3" fill="#C2D0DF"/>
<g clip-path="url(#clip0_45_266)">
<path d="M97.6795 48.9988C97.4749 50.7783 95.9361 52.1658 94.1026 52.1658C92.269 52.1658 90.7302 50.7783 90.5256 48.9988L85.1602 50.8618L85.8309 55.1094L88.1302 55.3858C88.394 55.4194 88.3948 55.4194 88.3948 55.691L88.141 65.244H100.064L99.8104 55.691C99.8025 55.4302 99.8025 55.4302 100.075 55.3858L102.374 55.1094L103.045 50.8618L97.6795 48.9988Z" fill="#457DB9"/>
</g>
<rect x="34" y="89.7949" width="31" height="5" fill="#C2D0DF"/>
<rect x="34" y="99.7949" width="17.8485" height="5" fill="#C2D0DF"/>
<rect x="34" y="79.7949" width="24.4242" height="5" fill="#C2D0DF"/>
<rect x="34" y="41" width="31" height="31.7949" rx="3" fill="#C2D0DF"/>
<g clip-path="url(#clip1_45_266)">
<path d="M52.6795 48.9988C52.4749 50.7783 50.9361 52.1658 49.1026 52.1658C47.269 52.1658 45.7302 50.7783 45.5256 48.9988L40.1602 50.8618L40.8309 55.1094L43.1302 55.3858C43.394 55.4194 43.3948 55.4194 43.3948 55.691L43.141 65.244H55.0641L54.8104 55.691C54.8025 55.4302 54.8025 55.4302 55.0749 55.3858L57.3742 55.1094L58.0449 50.8618L52.6795 48.9988Z" fill="#457DB9"/>
</g>
<defs>
<clipPath id="clip0_45_266">
<rect width="19.0769" height="19.0769" fill="white" transform="translate(84.5641 47.3594)"/>
</clipPath>
<clipPath id="clip1_45_266">
<rect width="19.0769" height="19.0769" fill="white" transform="translate(39.5641 47.3594)"/>
</clipPath>
</defs>
</svg>
