<svg width="150" height="150" viewBox="0 0 150 150" fill="none" xmlns="http://www.w3.org/2000/svg">
<rect width="150" height="150" fill="#0071F2"/>
<rect x="33" y="38" width="90" height="78" rx="6" fill="#123D6E"/>
<rect x="27" y="35" width="90" height="75" rx="6" fill="#FEFEFE"/>
<rect x="76" y="70" width="33" height="5" fill="#C2D0DF"/>
<rect x="76" y="80" width="33" height="5" fill="#C2D0DF"/>
<rect x="76" y="90" width="13" height="5" fill="#C2D0DF"/>
<rect x="76" y="60" width="19" height="5" fill="#C2D0DF"/>
<rect x="36" y="57" width="35" height="40" rx="3" fill="#C2D0DF"/>
<path d="M57.5 67.0625C57.2427 69.3012 55.3067 71.0469 53 71.0469C50.6933 71.0469 48.7573 69.3012 48.5 67.0625L41.75 69.4062L42.5938 74.75L45.4864 75.0978C45.8183 75.14 45.8192 75.14 45.8192 75.4817L45.5 87.5H60.5L60.1808 75.4817C60.1709 75.1536 60.1709 75.1536 60.5136 75.0978L63.4062 74.75L64.25 69.4062L57.5 67.0625Z" fill="#457DB9"/>
<circle cx="106" cy="47" r="5" fill="#4485CA"/>
</svg>
