<svg width="20" height="20" viewBox="0 0 20 20" fill="none" xmlns="http://www.w3.org/2000/svg">
<g clip-path="url(#clip0_5_2)">
<path d="M11.0072 9.60457H19.9691L20 9.62497V10.2469L19.9691 10.7669L19.928 11.1849L19.8458 11.7151L19.8048 11.9292L19.7842 11.9598L19.147 11.97L7.66702 11.9802L7.53342 12.0108L7.3998 12.0822L7.29703 12.1739L7.2662 12.2045H7.24564L7.22508 12.2453L7.10175 12.3779L7.00926 12.49L6.91676 12.592L6.82426 12.7041L6.71121 12.8265L6.63927 12.908L6.54678 13.01L6.48511 13.0916H6.46455L6.44399 13.1324L6.34122 13.2343L6.26927 13.3159L6.11511 13.4688L6.03289 13.5402L5.89929 13.6422L5.72457 13.7645L5.57041 13.8563L5.39569 13.948L5.19014 14.0398L4.85098 14.1519L4.63516 14.2029L4.40905 14.2335L4.29601 14.2437L2.99076 14.2539H1.02776L0.976372 14.2233L0.873596 14.0296L0.739989 13.7237L0.637213 13.4586L0.503607 13.1018L0.369999 12.6633L0.236392 12.1332L0.195282 11.9292V11.8986L6.38233 11.8885L7.28674 11.8783L7.44091 11.8273L7.56425 11.7559L7.68758 11.6437L7.75951 11.5622L7.8623 11.45L7.95479 11.3379L8.04729 11.2359L8.13979 11.1238L8.24255 11.0116L8.33505 10.8994L8.4481 10.7669L8.57143 10.6344L8.64338 10.5528L8.84892 10.3489L8.99281 10.2367L9.11614 10.1449L9.27031 10.043L9.53751 9.90025L9.74307 9.80849L10.0514 9.70652L10.2878 9.65555L10.483 9.62497L10.6064 9.61476L11.0072 9.60457Z" fill="#0071F2"/>
<path d="M12.0144 5.62817H19.0133L19.0544 5.68935L19.2498 6.13797L19.3627 6.41327L19.4963 6.79051L19.5992 7.12698L19.7637 7.76932L19.7944 7.94265V7.97324L19.7637 7.98343H10.4522L9.00309 7.99363L8.8592 8.00382L8.70504 8.05481L8.58171 8.12617L8.45837 8.23833L8.38643 8.3199L8.29394 8.42186L8.20144 8.53402L8.10894 8.63597L8.01645 8.74813L7.89312 8.89087L7.74923 9.04381L7.65674 9.15597L7.57451 9.23754L7.50258 9.31909L7.3484 9.47205L7.26619 9.54341L7.10174 9.67595L6.95786 9.77792L6.75232 9.90027L6.53648 10.0124L6.26926 10.1144L6.08427 10.1654L5.80678 10.2265L5.58067 10.2571L5.4368 10.2673H0.0308325L0.0102775 10.2367L0 10.1756V9.5536L0.0308325 9.03362L0.061665 8.70735L0.16444 8.065L0.184995 7.94265L0.195272 7.92225L0.359712 7.91206L8.41726 7.90187L8.58171 7.87128L8.71531 7.8203L8.81808 7.74894L8.94142 7.62657L9.03392 7.51443L9.15725 7.38187L9.24974 7.26971L9.38334 7.11678L9.47584 7.00462L9.54779 6.93325L9.61973 6.85168L9.74306 6.70895L9.83555 6.60698L10.0617 6.38268L10.1747 6.2909L10.3083 6.18895L10.483 6.07679L10.6989 5.95444L10.8428 5.88308L11.0483 5.80151L11.2744 5.73014L11.5005 5.67916L11.6958 5.64857L12.0144 5.62817Z" fill="#0071F2"/>
<path d="M18.6845 13.5708H19.2702L19.3113 13.5912L19.2189 13.8155L19.0544 14.1724L18.8078 14.6618L18.7153 14.8249L18.6331 14.9677L18.4686 15.2328L18.2014 15.6304L18.0369 15.8649L17.9547 15.9362L17.924 15.9465L5.66288 15.9567L5.53955 15.977L5.37512 16.0586L5.28261 16.1402H5.26207L5.24151 16.181L5.14901 16.2829L5.07707 16.3645L4.96402 16.4868L4.87152 16.5991L4.76874 16.7111L4.67624 16.8233L4.5632 16.9457L4.49125 17.0273L4.39875 17.1292L4.32682 17.2108L4.21376 17.3332L4.04931 17.4962L3.90544 17.6084L3.79239 17.7002L3.72043 17.69L3.56627 17.5575L3.42239 17.4351L3.25795 17.2821L3.18602 17.2108L3.10379 17.1394L3.02157 17.0578L2.98047 17.0273V17.0068L2.93935 16.9865L2.79547 16.8437L2.72352 16.7621L2.56936 16.5991L2.47687 16.497L2.40491 16.4154L2.29187 16.2829L2.19938 16.1708L1.97327 15.8852V15.8649L5.26207 15.8547L5.35456 15.8343L5.49845 15.7629L5.59095 15.6916L5.71427 15.5692L5.78621 15.4876L5.9712 15.2837L6.05343 15.1818L6.18704 15.0288L6.28981 14.9167L6.38231 14.8045L6.50563 14.672L6.57759 14.5904L6.80368 14.3661L6.91674 14.2743L7.04007 14.1724L7.22506 14.05L7.35867 13.9685L7.59506 13.8461L7.73893 13.7849L7.92394 13.7238L8.2117 13.6524L8.47891 13.6116L8.69474 13.5912L8.91058 13.581L18.6845 13.5708Z" fill="#0071F2"/>
<path d="M14.4296 1.64156H15.4471L15.5396 1.66195L15.6629 1.73332L15.8376 1.85567L15.9507 1.93724L16.1254 2.06978L16.2693 2.18194L16.4029 2.2941L16.516 2.38586L16.629 2.48781L16.7112 2.55919L16.8859 2.72232L17.2456 3.07917L17.3176 3.16075L17.4614 3.31368L17.5539 3.42584L17.6875 3.57878L17.7698 3.68075L17.9136 3.85406L18.0267 3.99681L18.0165 4.01721H10.9969L10.8222 4.0376L10.6886 4.08857L10.5755 4.17014L10.4317 4.31289L10.3597 4.39446L10.2569 4.5066L10.1644 4.61876L10.0617 4.73092L9.96917 4.84308L9.86639 4.95522L9.77389 5.06738L9.70196 5.13876L9.63 5.22032L9.53751 5.32229L9.29085 5.56698L9.14696 5.67914L9.00308 5.7811L8.78725 5.91365L8.62282 5.99521L8.4481 6.07678L8.18088 6.16854L7.93423 6.22971L7.67729 6.27051L7.47173 6.29089L7.07092 6.3011H0.688599L0.698877 6.25011L0.791373 6.036L0.924981 5.74032L1.06887 5.44464L1.22303 5.13876L1.31553 4.97562L1.43885 4.7717L1.65468 4.43524L1.94245 4.0274L2.03495 3.92544H8.97224L10.4933 3.91524L10.6578 3.88465L10.8016 3.79289L10.925 3.68075L11.038 3.55838L11.1305 3.45643L11.223 3.34427L11.3361 3.22192L11.4183 3.11997L11.5313 2.99762L11.6238 2.88546L11.7472 2.75291L11.8191 2.67135L11.9424 2.53879L12.0349 2.44703L12.1172 2.37567L12.261 2.26351L12.446 2.13095L12.5797 2.0494L12.816 1.92705L12.9805 1.85567L13.3196 1.74351L13.5457 1.69254L13.7924 1.66195L13.9671 1.65175L14.4296 1.64156Z" fill="#0071F2"/>
<path d="M16.2179 17.5471L16.4029 17.5575L16.3822 17.5983L16.2693 17.69L16.1254 17.8021L15.7348 18.0876L15.5601 18.21L15.3957 18.3119L15.2415 18.4138L15.0154 18.5464L14.7893 18.6687L14.5529 18.7911L14.3782 18.8829L14.0391 19.0359L13.741 19.1581L13.2888 19.3314L12.9085 19.4538L12.4666 19.5762L12.0555 19.6679L11.6136 19.7495L11.1716 19.8106L10.7091 19.8514L10.2981 19.8719H9.6814L9.39362 19.8618L8.77698 19.8106L8.36588 19.7495L7.87256 19.6578L7.43063 19.5559L6.87564 19.3927L6.60842 19.301L6.08428 19.097L5.91984 19.0256L5.76567 18.9543L5.42652 18.7911L5.19013 18.6687L4.91264 18.5056L4.76876 18.4138L4.75848 18.373L4.86125 18.2711L5.00514 18.1589L5.16959 18.0468L5.38541 17.9245L5.54984 17.8429L5.71429 17.7716L5.97122 17.6797L6.18704 17.6287L6.42343 17.5879L6.69064 17.5676L14.1521 17.5575L16.2179 17.5471Z" fill="#0071F2"/>
<path d="M9.60945 0H10.3289L10.8119 0.0305878L11.2436 0.0713714L11.665 0.132547L12.0247 0.193722L12.261 0.244702L12.2919 0.27529L12.1891 0.407837L12.0863 0.519992L12.0144 0.601559L11.9116 0.713714L11.8191 0.82587L11.7163 0.938025L11.6238 1.05018L11.5108 1.17253L11.3875 1.30508L11.2744 1.42743L11.1922 1.4988L11.1202 1.57017L11.0072 1.66194L10.8119 1.80468L10.6783 1.88624L10.4419 2.0086L10.2672 2.09016L10.0719 2.16154L9.82529 2.2329L9.56834 2.28389L9.24974 2.31448L8.78726 2.32467H3.57657L3.59713 2.28389L3.67935 2.21251L3.80268 2.12075L3.98767 1.97802L4.18294 1.84546L4.33711 1.7333L4.51182 1.62116L4.7482 1.46821L4.98458 1.32547L5.23124 1.18273L5.53958 1.01959L5.82734 0.887044L6.13567 0.754498L6.41316 0.642343L6.69065 0.540384L7.13258 0.397641L7.58479 0.27529L8.00617 0.183527L8.35561 0.122351L8.78726 0.0611756L9.23946 0.0203919L9.60945 0Z" fill="#0071F2"/>
</g>
<defs>
<clipPath id="clip0_5_2">
<rect width="20" height="20" fill="white"/>
</clipPath>
</defs>
</svg>
