<svg width="125" height="126" viewBox="0 0 125 126" fill="none" xmlns="http://www.w3.org/2000/svg">
<path d="M68.7949 60.5088H124.807L125 60.6373V64.5556L124.807 67.8315L124.55 70.4651L124.036 73.8053L123.78 75.1542L123.651 75.3469L119.669 75.4112L47.9188 75.4754L47.0838 75.6681L46.2487 76.1177L45.6064 76.6958L45.4137 76.8885H45.2852L45.1567 77.1455L44.3859 77.9805L43.8078 78.6871L43.2297 79.3294L42.6516 80.036L41.945 80.8068L41.4954 81.3207L40.9173 81.963L40.5319 82.4769H40.4034L40.2749 82.7339L39.6326 83.3762L39.1829 83.8901L38.2194 84.8536L37.7055 85.3032L36.8705 85.9456L35.7785 86.7164L34.815 87.2945L33.723 87.8726L32.4383 88.4507L30.3186 89.1573L28.9697 89.4785L27.5565 89.6712L26.85 89.7354L18.6922 89.7996H6.42344L6.10227 89.6069L5.45992 88.3865L4.62488 86.4594L3.98253 84.7894L3.14749 82.5412L2.31244 79.7791L1.4774 76.4389L1.22046 75.1542V74.9615L39.8895 74.8973L45.5421 74.833L46.5056 74.5119L47.2765 74.0622L48.0473 73.3556L48.4969 72.8418L49.1393 72.1352L49.7174 71.4286L50.2955 70.7863L50.8736 70.0797L51.5159 69.3731L52.094 68.6665L52.8006 67.8315L53.5714 66.9965L54.0211 66.4826L55.3057 65.1979L56.205 64.4913L56.9758 63.9132L57.9394 63.2709L59.6094 62.3716L60.8941 61.7935L62.8212 61.1511L64.2985 60.83L65.519 60.6373L66.2898 60.573L68.7949 60.5088Z" fill="#0071F2"/>
<path d="M75.0899 35.4575H118.833L119.09 35.8429L120.311 38.6692L121.017 40.4036L121.852 42.7802L122.495 44.9L123.523 48.9467L123.715 50.0387V50.2314L123.523 50.2956H65.3263L56.2693 50.3599L55.37 50.4241L54.4065 50.7453L53.6357 51.1949L52.8648 51.9015L52.4152 52.4154L51.8371 53.0577L51.259 53.7643L50.6809 54.4066L50.1028 55.1132L49.332 56.0125L48.4327 56.976L47.8546 57.6826L47.3407 58.1965L46.8911 58.7103L45.9275 59.6739L45.4137 60.1235L44.3859 60.9585L43.4866 61.6009L42.202 62.3717L40.853 63.0783L39.1829 63.7206L38.0267 64.0418L36.2924 64.4272L34.8792 64.6199L33.98 64.6841H0.192703L0.0642342 64.4914L0 64.106V60.1877L0.192703 56.9118L0.385406 54.8563L1.02775 50.8095L1.15622 50.0387L1.22045 49.9102L2.2482 49.846L52.6079 49.7818L53.6357 49.5891L54.4707 49.2679L55.113 48.8183L55.8839 48.0474L56.462 47.3409L57.2328 46.5058L57.8109 45.7992L58.6459 44.8357L59.224 44.1291L59.6737 43.6795L60.1233 43.1656L60.8941 42.2664L61.4722 41.624L62.8854 40.2109L63.592 39.6327L64.427 38.9904L65.519 38.2838L66.8679 37.513L67.7672 37.0634L69.0519 36.5495L70.465 36.0999L71.8782 35.7787L73.0986 35.586L75.0899 35.4575Z" fill="#0071F2"/>
<path d="M116.778 85.4961H120.439L120.696 85.6246L120.118 87.0377L119.09 89.2859L117.549 92.3692L116.971 93.3969L116.457 94.2962L115.429 95.9663L113.759 98.4714L112.731 99.9488L112.217 100.398L112.025 100.463L35.3931 100.527L34.6223 100.655L33.5946 101.169L33.0164 101.683H32.888L32.7595 101.94L32.1814 102.582L31.7318 103.096L31.0252 103.867L30.4471 104.574L29.8047 105.28L29.2266 105.987L28.5201 106.758L28.0704 107.272L27.4923 107.914L27.0427 108.428L26.3361 109.199L25.3083 110.226L24.4091 110.933L23.7025 111.511L23.2528 111.447L22.2893 110.612L21.39 109.841L20.3623 108.877L19.9127 108.428L19.3988 107.978L18.8849 107.464L18.628 107.272V107.143L18.371 107.015L17.4718 106.115L17.0221 105.601L16.0586 104.574L15.4805 103.931L15.0308 103.417L14.3243 102.582L13.7462 101.876L12.333 100.077V99.9488L32.888 99.8846L33.4661 99.7561L34.3654 99.3065L34.9435 98.8568L35.7143 98.086L36.1639 97.5721L37.3201 96.2875L37.834 95.6451L38.6691 94.6816L39.3114 93.975L39.8895 93.2684L40.6603 92.4334L41.11 91.9195L42.5231 90.5064L43.2297 89.9283L44.0005 89.2859L45.1567 88.5151L45.9918 88.0012L47.4692 87.2304L48.3684 86.845L49.5247 86.4596L51.3232 86.01L52.9933 85.753L54.3422 85.6246L55.6912 85.5603L116.778 85.4961Z" fill="#0071F2"/>
<path d="M90.1849 10.3418H96.5441L97.1222 10.4703L97.8931 10.9199L98.985 11.6907L99.6916 12.2046L100.784 13.0396L101.683 13.7462L102.518 14.4528L103.225 15.0309L103.931 15.6732L104.445 16.1229L105.537 17.1506L107.785 19.3988L108.235 19.9127L109.134 20.8762L109.712 21.5828L110.547 22.5463L111.061 23.1887L111.96 24.2806L112.667 25.1799L112.603 25.3084H68.7307L67.6387 25.4369L66.8037 25.758L66.0971 26.2719L65.1978 27.1712L64.7482 27.6851L64.1058 28.3916L63.5277 29.0982L62.8854 29.8048L62.3073 30.5114L61.6649 31.2179L61.0868 31.9245L60.6372 32.3742L60.1875 32.888L59.6094 33.5304L58.0678 35.072L57.1685 35.7786L56.2692 36.4209L54.9203 37.256L53.8926 37.7698L52.8006 38.2837L51.1305 38.8618L49.5889 39.2472L47.983 39.5042L46.6983 39.6326L44.1932 39.6969H4.30371L4.36795 39.3757L4.94605 38.0268L5.7811 36.164L6.68038 34.3012L7.64389 32.3742L8.222 31.3464L8.99279 30.0617L10.3417 27.942L12.1403 25.3726L12.7184 24.7303H56.0765L65.5832 24.666L66.611 24.4733L67.5102 23.8952L68.281 23.1887L68.9876 22.4178L69.5657 21.7755L70.1438 21.0689L70.8504 20.2981L71.3643 19.6558L72.0709 18.885L72.649 18.1784L73.4198 17.3433L73.8694 16.8295L74.6402 15.9944L75.2183 15.4163L75.7322 14.9667L76.6315 14.2601L77.7877 13.425L78.6228 12.9112L80.1002 12.1404L81.1279 11.6907L83.2476 10.9841L84.6608 10.663L86.2024 10.4703L87.2944 10.406L90.1849 10.3418Z" fill="#0071F2"/>
<path d="M101.362 110.547L102.518 110.612L102.389 110.869L101.683 111.447L100.784 112.153L98.3427 113.952L97.2507 114.723L96.223 115.365L95.2595 116.007L93.8463 116.842L92.4332 117.613L90.9558 118.384L89.8638 118.962L87.7441 119.926L85.8813 120.696L83.0549 121.788L80.6783 122.559L77.9162 123.33L75.3468 123.908L72.5848 124.422L69.8227 124.807L66.9321 125.064L64.3628 125.193H60.5087L58.7101 125.129L54.8561 124.807L52.2867 124.422L49.2035 123.844L46.4414 123.202L42.9727 122.174L41.3026 121.596L38.0267 120.311L36.999 119.861L36.0354 119.412L33.9157 118.384L32.4383 117.613L30.704 116.585L29.8047 116.007L29.7405 115.75L30.3828 115.108L31.2821 114.401L32.3099 113.695L33.6588 112.924L34.6865 112.41L35.7143 111.961L37.3201 111.382L38.669 111.061L40.1464 110.804L41.8165 110.676L88.4506 110.612L101.362 110.547Z" fill="#0071F2"/>
<path d="M60.059 0H64.5554L67.5745 0.192703L70.2723 0.44964L72.9059 0.835046L75.1541 1.22045L76.6315 1.54162L76.8242 1.73433L76.1819 2.56937L75.5395 3.27595L75.0899 3.78982L74.4475 4.4964L73.8694 5.20298L73.2271 5.90956L72.649 6.61613L71.9424 7.38694L71.1716 8.22199L70.465 8.9928L69.9511 9.44244L69.5015 9.89208L68.7949 10.4702L67.5745 11.3695L66.7394 11.8833L65.262 12.6542L64.17 13.168L62.9496 13.6177L61.408 14.0673L59.8021 14.3885L57.8108 14.5812L54.9203 14.6454H22.3535L22.482 14.3885L22.9959 13.9388L23.7667 13.3607L24.9229 12.4615L26.1433 11.6264L27.1069 10.9198L28.1988 10.2133L29.6762 9.24974L31.1536 8.35046L32.6952 7.45118L34.6223 6.42343L36.4208 5.58838L38.3479 4.75334L40.0822 4.04676L41.8165 3.40442L44.5786 2.50514L47.4049 1.73433L50.0385 1.15622L52.2225 0.770812L54.9203 0.385406L57.7466 0.128469L60.059 0Z" fill="#0071F2"/>
</svg>
