<?xml version="1.0" encoding="utf-8"?>
<!-- Generator: Adobe Illustrator 16.0.0, SVG Export Plug-In . SVG Version: 6.00 Build 0)  -->
<!DOCTYPE svg PUBLIC "-//W3C//DTD SVG 1.1//EN" "http://www.w3.org/Graphics/SVG/1.1/DTD/svg11.dtd">
<svg version="1.1" id="Layer_1" xmlns="http://www.w3.org/2000/svg" xmlns:xlink="http://www.w3.org/1999/xlink" x="0px" y="0px"
	 width="20px" height="20px" viewBox="0 0 20 20" enable-background="new 0 0 20 20" xml:space="preserve">
<g transform="matrix(1.3499999 0 0 1.3499999 0 0)">
	<path fill="#D8A505" d="M7.406,0.171v14.474c3.998,0,7.238-3.239,7.238-7.235C14.644,3.412,11.404,0.171,7.406,0.171z"/>
	<path fill="#FFCB05" d="M13.479,7.41c0-3.998-2.721-7.239-6.073-7.239c-3.997,0-7.235,3.241-7.235,7.239
		c0,3.996,3.238,7.235,7.235,7.235C10.759,14.645,13.479,11.406,13.479,7.41z"/>
	<path d="M7.347,4.025c-1.859,0-3.399,1.512-3.399,3.371c0,1.858,1.54,3.397,3.399,3.397c1.858,0,3.37-1.539,3.37-3.397
		C10.716,5.537,9.204,4.025,7.347,4.025z M9.13,7.793H7.743v1.415c0,0.217-0.18,0.395-0.396,0.395c-0.221,0-0.398-0.178-0.398-0.395
		l0,0V7.793H5.534c-0.217,0-0.395-0.177-0.395-0.397c0-0.218,0.178-0.396,0.395-0.396l0,0h1.415V5.611
		c0-0.218,0.177-0.395,0.398-0.395c0.217,0,0.396,0.178,0.396,0.395l0,0v1.389H9.13c0.218,0,0.396,0.178,0.396,0.396
		C9.525,7.616,9.348,7.793,9.13,7.793z"/>
</g>
</svg>
