<?xml version="1.0" encoding="utf-8"?>
<!-- Generator: Adobe Illustrator 16.0.0, SVG Export Plug-In . SVG Version: 6.00 Build 0)  -->
<!DOCTYPE svg PUBLIC "-//W3C//DTD SVG 1.1//EN" "http://www.w3.org/Graphics/SVG/1.1/DTD/svg11.dtd">
<svg version="1.1" id="Layer_1" xmlns="http://www.w3.org/2000/svg" xmlns:xlink="http://www.w3.org/1999/xlink" x="0px" y="0px"
	 width="200px" height="200px" viewBox="0 0 200 200" enable-background="new 0 0 200 200" xml:space="preserve">
<path fill="#D8A505" d="M99.887,1.538V199c54.527,0,98.731-44.203,98.731-98.73C198.618,45.741,154.414,1.538,99.887,1.538z"/>
<path fill="#FFCB05" d="M182.726,100.27c0-54.528-37.088-98.731-82.839-98.731c-54.527,0-98.73,44.203-98.73,98.731
	c0,54.527,44.203,98.73,98.73,98.73C145.638,199,182.726,154.797,182.726,100.27z"/>
<g>
	<g>
		<path d="M99.051,54.106c-25.355,0-46.343,20.627-46.343,45.982s20.988,46.343,46.343,46.343c25.356,0,45.983-20.988,45.983-46.343
			S124.407,54.106,99.051,54.106z M123.395,105.498h-18.934v19.295c0,2.982-2.429,5.41-5.41,5.41c-2.982,0-5.409-2.428-5.409-5.41
			v-19.295H74.347c-2.982,0-5.41-2.428-5.41-5.41c0-2.982,2.427-5.409,5.41-5.409h19.295V75.746c0-2.983,2.427-5.41,5.409-5.41
			c2.981,0,5.41,2.427,5.41,5.41v18.934h18.934c2.981,0,5.41,2.427,5.41,5.409C128.805,103.07,126.376,105.498,123.395,105.498z"/>
	</g>
</g>
</svg>
